<?xml version="1.0"?>
<svg width="94.539" height="89.021" xmlns="http://www.w3.org/2000/svg" xmlns:svg="http://www.w3.org/2000/svg" enable-background="new 0 0 94.539 89.021" version="1.1" xml:space="preserve">
 <g class="layer">
  <title>Layer 1</title>
  <g id="settings">
   <g id="svg_1">
    <path d="m53.81,0.01c3.19,-0.15 6.24,1.07 9.17,3.68l21.19,19.2l2.28,-2.46l8.09,7.33l-12.33,13.62l-8.1,-7.38l2.02,-2.22l-21.32,-19.3c-2.46,-2.2 -5.52,-3.21 -9.18,-3.03c-2.43,0.12 -4.76,0.69 -6.99,1.71c4.76,-7.16 9.82,-10.88 15.17,-11.15z" fill="#007fff" id="svg_2"/>
    <rect fill="#007fff" height="2.54" id="svg_3" transform="matrix(-0.7413 -0.6711 0.6711 -0.7413 122.463 70.393)" width="13.14" x="68.22" y="10.33"/>
    <polygon fill="#007fff" id="svg_4" points="29.478,50.429 3.583,77.775 16.005,89.021 40.694,60.545   "/>
    <g id="svg_5">
     <polygon fill="#007fff" id="svg_6" points="54.548,44.556 69.689,27.088 59.888,18.215 44.013,35.055    "/>
     <path d="m83.13,75.24c0.3,-1.29 0.42,-2.56 0.35,-3.83c-0.18,-3.73 -1.64,-6.83 -4.38,-9.31c-2.73,-2.47 -5.98,-3.62 -9.75,-3.43c-1.26,0.06 -2.52,0.29 -3.77,0.68l-13.39,-12.07l0.06,-0.07l-10.65,-9.6l-0.01,0.02l-14.02,-12.69c0.26,-1.25 0.36,-2.51 0.3,-3.77c-0.19,-3.8 -1.65,-6.94 -4.38,-9.42c-2.74,-2.47 -5.97,-3.62 -9.7,-3.43c-1.3,0.06 -2.58,0.31 -3.82,0.73l10.82,9.8l-9.59,10.65l-10.83,-9.8c-0.3,1.29 -0.42,2.56 -0.35,3.83c0.18,3.73 1.64,6.83 4.38,9.31c2.73,2.47 5.96,3.62 9.69,3.43c1.38,-0.07 2.72,-0.33 4.04,-0.8l4.7,4.26l0.01,-0.02l30.6,27.6l-0.06,0.06l2.65,2.41c-0.33,1.36 -0.47,2.71 -0.4,4.05c0.19,3.76 1.64,6.88 4.36,9.36c2.71,2.47 5.95,3.62 9.72,3.43c1.26,-0.06 2.52,-0.31 3.77,-0.73l-10.83,-9.8l9.65,-10.66l10.83,9.81z" fill="#007fff" id="svg_7"/>
    </g>
   </g>
  </g>
  <g id="Слой_1"/>
 </g>
</svg>